<svg width="56" height="56" viewBox="0 0 56 56" fill="none" xmlns="http://www.w3.org/2000/svg">
<g id="publicon/social/24px">
<path id="icon/social/publicon/social/24px" fill-rule="evenodd" clip-rule="evenodd" d="M27.9998 4.66663C15.1198 4.66663 4.6665 15.12 4.6665 28C4.6665 40.88 15.1198 51.3333 27.9998 51.3333C40.8798 51.3333 51.3332 40.88 51.3332 28C51.3332 15.12 40.8798 4.66663 27.9998 4.66663ZM9.33317 27.9999C9.33317 26.5766 9.51984 25.1766 9.82317 23.8466L20.9765 34.9999V37.3333C20.9765 39.8999 23.0765 41.9999 25.6432 41.9999V46.5033C16.4732 45.3366 9.33317 37.4966 9.33317 27.9999ZM37.3101 37.3332C39.4101 37.3332 41.1368 38.7099 41.7435 40.5999C44.7768 37.2866 46.6668 32.8532 46.6668 27.9999C46.6668 20.1832 41.8135 13.4632 34.9768 10.7099V11.6666C34.9768 14.2332 32.8768 16.3332 30.3101 16.3332H25.6435V20.9999C25.6435 22.2832 24.5935 23.3332 23.3101 23.3332H18.6435V27.9999H32.6435C33.9268 27.9999 34.9768 29.0499 34.9768 30.3332V37.3332H37.3101Z" fill="#627968"/>
</g>
</svg>
