<svg width="56" height="56" viewBox="0 0 56 56" fill="none" xmlns="http://www.w3.org/2000/svg">
<g id="phone_iphone_24px">
<path id="icon/hardware/phone_iphone_24px" fill-rule="evenodd" clip-rule="evenodd" d="M37.333 2.33337H18.6663C15.4463 2.33337 12.833 4.94671 12.833 8.16671V47.8334C12.833 51.0534 15.4463 53.6667 18.6663 53.6667H37.333C40.553 53.6667 43.1663 51.0534 43.1663 47.8334V8.16671C43.1663 4.94671 40.553 2.33337 37.333 2.33337ZM27.9998 51.3334C26.0632 51.3334 24.4998 49.7701 24.4998 47.8334C24.4998 45.8967 26.0632 44.3334 27.9998 44.3334C29.9365 44.3334 31.4998 45.8967 31.4998 47.8334C31.4998 49.7701 29.9365 51.3334 27.9998 51.3334ZM17.4998 42H38.4998V9.33337H17.4998V42Z" fill="#627968"/>
</g>
</svg>
