<svg width="56" height="56" viewBox="0 0 56 56" fill="none" xmlns="http://www.w3.org/2000/svg">
<g id="spa_24px">
<path id="icon/places/spa_24px" fill-rule="evenodd" clip-rule="evenodd" d="M36.1429 22.47C35.7229 15.96 33.0862 9.61335 28.1395 4.66669C23.1462 9.66002 20.3929 16.0067 19.8562 22.47C22.8429 24.0567 25.5962 26.11 27.9995 28.6067C30.4029 26.1334 33.1562 24.08 36.1429 22.47ZM28.1169 12.11C29.5869 14.5134 30.6135 17.1967 31.1502 19.9967C30.0535 20.6967 29.0269 21.4667 28.0235 22.2833C27.0435 21.49 25.9935 20.72 24.9202 20.02C25.5035 17.22 26.5769 14.5367 28.1169 12.11ZM20.8598 28.5834C23.6598 30.59 26.0865 33.1334 27.9998 36.05C33.0165 28.3967 41.5798 23.3334 51.3332 23.3334C51.3332 35.7467 43.4932 46.2467 32.5965 50.1434C31.1032 50.6567 29.5865 51.0534 27.9998 51.3334C26.4132 51.0767 24.8732 50.68 23.4032 50.1434C12.5065 46.2467 4.6665 35.7467 4.6665 23.3334C10.7098 23.3334 16.2865 25.27 20.8365 28.56C20.715 28.479 20.5847 28.398 20.4514 28.3151L20.4514 28.3151L20.4513 28.3151C20.2774 28.2069 20.0982 28.0956 19.9265 27.9767C20.1026 28.1121 20.2865 28.224 20.4692 28.3351C20.6012 28.4153 20.7326 28.4952 20.8598 28.5834ZM31.0795 45.7334C30.0529 46.0834 29.0262 46.3634 27.9762 46.5967C26.9495 46.3867 25.9462 46.1067 24.9895 45.7567C17.3129 43.0034 11.6895 36.4467 9.93952 28.6067C12.5062 29.2134 14.9562 30.2634 17.2195 31.71L17.1729 31.7334L17.1729 31.7334C17.4762 31.9434 17.7795 32.1534 18.0829 32.3167L18.2462 32.41C20.5562 34.09 22.5395 36.1667 24.1029 38.5934L27.9995 44.5667L31.8962 38.6167C33.5062 36.1667 35.5129 34.0667 37.7995 32.41L37.9629 32.2934C38.1729 32.1767 38.3829 32.0367 38.5929 31.8967L38.5695 31.85C40.8562 30.3334 43.3995 29.2134 46.0595 28.5834C44.3095 36.4467 38.7095 43.0034 31.0795 45.7334ZM20.883 28.5829C20.908 28.6067 20.9422 28.6363 20.9764 28.6533C20.9297 28.63 20.9064 28.6067 20.883 28.5833C20.883 28.5832 20.883 28.583 20.883 28.5829ZM20.8597 28.56C20.8597 28.56 20.8827 28.56 20.883 28.5829C20.8739 28.5742 20.866 28.5663 20.8597 28.56Z" fill="#627968"/>
</g>
</svg>
